<svg xmlns="http://www.w3.org/2000/svg" viewBox="0 0 533.5 544.3" aria-hidden="true">
  <path fill="#4285F4" d="M533.5 278.4c0-17.4-1.6-34.1-4.6-50.4H272v95.4h146.9c-6.3 33.9-25 62.6-53.3 81.9v67h86.1c50.4-46.5 81.8-115 81.8-193.9z"/>
  <path fill="#34A853" d="M272 544.3c72.6 0 133.6-24.1 178.1-65.6l-86.1-67c-24 16.1-54.8 25.8-92 25.8-70.8 0-130.8-47.9-152.3-112.3H30.5v70.4C74.9 486.1 167.7 544.3 272 544.3z"/>
  <path fill="#FBBC05" d="M119.7 325.2c-10.8-33.9-10.8-70.4 0-104.3V150.5H30.5C-10.2 231.1-10.2 313.2 30.5 393.8l89.2-68.6z"/>
  <path fill="#EA4335" d="M272 107.7c39.5-.6 77.5 14.6 106.7 42.6l80.1-80.1C413.6 24.1 352.6 0 272 0 167.7 0 74.9 58.2 30.5 150.5l89.2 68.4C141.2 155.6 201.2 107.7 272 107.7z"/>
</svg>
